P2
# Created by GIMP version 2.10.34 PNM plug-in
25 19
255
114
117
119
121
122
123
123
127
153
200
231
247
248
242
247
223
177
123
109
104
98
94
89
86
84
116
118
121
123
124
129
154
223
252
250
248
250
250
250
251
251
251
235
213
161
109
97
92
88
86
116
119
122
131
193
241
251
250
248
247
247
246
247
247
245
248
246
246
250
252
222
137
94
90
87
116
120
164
238
251
250
230
236
241
236
234
234
237
230
230
235
242
240
196
246
248
244
157
94
91
121
180
247
244
242
228
146
218
232
230
215
215
223
213
208
213
230
238
194
206
243
236
247
168
97
201
248
235
231
221
196
138
206
219
207
193
187
205
203
180
187
200
218
199
156
239
227
234
240
129
232
227
210
215
222
173
147
205
196
187
177
176
177
174
165
169
191
200
201
127
222
201
198
219
131
202
187
188
198
215
159
155
193
196
186
171
162
159
161
153
137
140
197
208
134
207
196
167
189
129
174
167
163
188
211
136
156
205
199
144
125
142
153
164
141
105
73
129
177
126
189
203
152
160
118
144
170
152
187
204
117
153
177
137
62
66
139
175
188
172
133
32
54
146
117
144
217
160
131
121
145
152
168
191
178
114
140
167
107
51
96
182
220
226
226
210
148
140
160
130
172
196
158
127
125
150
152
157
181
163
135
141
169
160
143
184
226
239
240
239
237
216
177
167
140
197
155
148
131
126
159
161
161
213
206
161
155
171
175
174
204
220
212
189
187
211
229
187
178
160
199
144
138
132
128
162
162
189
248
216
170
160
171
187
182
207
206
128
85
89
128
207
211
183
192
206
147
140
132
127
162
180
245
248
222
177
153
160
178
199
197
171
85
5
2
74
169
215
195
196
174
153
141
130
126
162
230
251
241
216
183
158
142
165
178
182
146
78
5
2
58
143
204
201
200
167
148
135
127
129
175
247
244
228
208
182
160
139
139
143
165
125
69
27
21
50
121
197
234
222
158
136
127
126
130
199
248
233
213
205
172
139
136
122
124
127
128
99
76
79
119
152
182
237
225
149
122
117
123
128
233
241
224
203
190
171
154
140
121
107
99
101
115
116
122
133
144
172
219
213
140
117
115
122
123
